<svg width="82" height="82" viewBox="0 0 82 82" fill="none" xmlns="http://www.w3.org/2000/svg">
<rect width="81.6788" height="81.6788" rx="24.5036" fill="#1E1E1E"/>
<path d="M23.6921 50.3204V38.526H25.9268V50.3204H23.6921ZM25.9268 43.5914L25.0826 43.219C25.0826 41.7126 25.4302 40.5124 26.1255 39.6186C26.8207 38.7247 27.8222 38.2777 29.1299 38.2777C29.7259 38.2777 30.2639 38.3853 30.7439 38.6005C31.224 38.7992 31.6709 39.1385 32.0847 39.6186L30.6198 41.1332C30.3714 40.8683 30.0983 40.678 29.8004 40.5621C29.5024 40.4462 29.1548 40.3883 28.7575 40.3883C27.9298 40.3883 27.2511 40.6532 26.7214 41.1829C26.1917 41.7126 25.9268 42.5154 25.9268 43.5914ZM42.4574 50.5687C41.2821 50.5687 40.2227 50.3039 39.2791 49.7742C38.3356 49.2279 37.5907 48.4913 37.0444 47.5643C36.4981 46.6373 36.225 45.5861 36.225 44.4108C36.225 43.2521 36.4899 42.2092 37.0196 41.2822C37.5658 40.3552 38.2942 39.6268 39.2047 39.0971C40.1317 38.5509 41.1662 38.2777 42.3084 38.2777C43.401 38.2777 44.3611 38.526 45.1888 39.0226C46.033 39.5192 46.6869 40.2062 47.1504 41.0835C47.6304 41.9609 47.8704 42.9541 47.8704 44.0632C47.8704 44.2287 47.8622 44.4108 47.8456 44.6095C47.8291 44.7915 47.796 45.0067 47.7463 45.255H37.7893V43.3928H46.5544L45.735 44.1128C45.735 43.3183 45.5943 42.6479 45.3129 42.1016C45.0315 41.5388 44.6342 41.1084 44.1211 40.8104C43.6079 40.4959 42.9871 40.3386 42.2588 40.3386C41.4973 40.3386 40.8269 40.5042 40.2475 40.8352C39.6682 41.1663 39.2212 41.6298 38.9067 42.2257C38.5922 42.8217 38.4349 43.5252 38.4349 44.3363C38.4349 45.164 38.6004 45.8924 38.9315 46.5214C39.2626 47.1339 39.7344 47.6139 40.3468 47.9616C40.9593 48.2926 41.6629 48.4582 42.4574 48.4582C43.1196 48.4582 43.7238 48.3423 44.27 48.1105C44.8329 47.8788 45.3129 47.5312 45.7102 47.0677L47.1504 48.5326C46.5875 49.1948 45.8923 49.6997 45.0646 50.0473C44.2535 50.3949 43.3844 50.5687 42.4574 50.5687ZM55.9933 50.5687C55.5298 50.5687 55.1408 50.4115 54.8262 50.097C54.5283 49.7659 54.3793 49.3769 54.3793 48.9299C54.3793 48.4664 54.5283 48.0857 54.8262 47.7877C55.1408 47.4732 55.5298 47.316 55.9933 47.316C56.4568 47.316 56.8375 47.4732 57.1355 47.7877C57.45 48.0857 57.6072 48.4664 57.6072 48.9299C57.6072 49.3769 57.45 49.7659 57.1355 50.097C56.8375 50.4115 56.4568 50.5687 55.9933 50.5687Z" fill="white"/>
</svg>
